PathFileType  4	(X/Y/Z) C:\Inversekin\DARPA\DARPA11\Files_W_HJCs\
DataRate	CameraRate	NumFrames	NumMarkers	Units	OrigDataRate	OrigDataStartFrame	OrigNumFrames
  100.0		  100.0		    10		     41		 mm	  100.0	      58	    153
Frame#	Time	R.Shoulder			L.Shoulder			R.Clavicle			L.Clavicle			R.Biceps			R.Elbow			R.Forearm			R.Wrist			L.Biceps			L.Elbow			L.Forearm			L.Wrist			R.ASIS			L.ASIS			R.PSIS			S2			L.PSIS			R.TH1			R.TH2			R.TH3			R.Knee			R.SH1			R.SH2			R.SH3			R.SH4			R.Ankle			R.Heel			R.MT5			R.Toe			L.TH1			L.TH2			L.TH3			L.TH4			L.Knee			L.SH1			L.SH2			L.SH3			L.Ankle			L.Heel			L.MT5			L.Toe			
		X1	Y1	Z1	X2	Y2	Z2	X3	Y3	Z3	X4	Y4	Z4	X5	Y5	Z5	X6	Y6	Z6	X7	Y7	Z7	X8	Y8	Z8	X9	Y9	Z9	X10	Y10	Z10	X11	Y11	Z11	X12	Y12	Z12	X13	Y13	Z13	X14	Y14	Z14	X15	Y15	Z15	X16	Y16	Z16	X17	Y17	Z17	X18	Y18	Z18	X19	Y19	Z19	X20	Y20	Z20	X21	Y21	Z21	X22	Y22	Z22	X23	Y23	Z23	X24	Y24	Z24	X25	Y25	Z25	X26	Y26	Z26	X27	Y27	Z27	X28	Y28	Z28	X29	Y29	Z29	X30	Y30	Z30	X31	Y31	Z31	X32	Y32	Z32	X33	Y33	Z33	X34	Y34	Z34	X35	Y35	Z35	X36	Y36	Z36	X37	Y37	Z37	X38	Y38	Z38	X39	Y39	Z39	X40	Y40	Z40	X41	Y41	Z41	

58	0.57000	408.616	1563.459	-301.800	678.334	1567.917	-291.190	508.228	1507.709	-193.271	564.416	1509.349	-191.010	202.542	1567.149	-321.308	115.385	1592.701	-371.441	110.374	1583.701	-219.841	99.020	1567.997	-105.111	860.517	1537.186	-315.992	981.581	1533.025	-331.305	997.439	1572.544	-192.177	999.885	1588.243	-82.039	407.327	1021.569	-159.242	663.034	1011.363	-174.253	479.371	1035.659	-374.000	522.418	1014.258	-390.337	570.922	1033.462	-379.335	314.223	795.251	-205.469	309.845	790.443	-314.395	322.563	662.061	-318.532	325.754	528.700	-276.959	307.872	436.973	-267.545	288.509	326.211	-274.140	305.512	437.991	-351.703	293.394	318.520	-358.821	294.675	113.628	-313.975	337.282	37.262	-390.979	252.280	33.737	-201.153	350.809	55.626	-91.531	707.556	792.548	-169.574	700.362	661.414	-183.467	752.492	810.658	-265.208	734.870	678.495	-295.642	710.874	531.489	-294.807	716.893	426.599	-272.684	740.086	445.379	-365.133	747.790	329.589	-379.647	753.465	115.507	-331.357	706.769	35.877	-416.463	801.763	39.251	-230.991	712.713	57.460	-120.667
59	0.58000	408.647	1563.597	-301.769	678.394	1568.000	-290.999	508.275	1507.784	-193.227	564.555	1509.433	-190.944	202.751	1567.700	-321.144	115.560	1593.416	-371.057	110.293	1584.165	-219.500	99.177	1568.147	-104.837	860.645	1537.673	-315.619	981.603	1533.870	-330.773	997.461	1572.748	-191.497	999.607	1588.069	-81.306	407.343	1021.660	-159.247	663.140	1011.497	-174.158	479.425	1035.783	-374.005	522.482	1014.386	-390.316	570.976	1033.594	-379.286	314.226	795.339	-205.451	309.895	790.568	-314.380	322.603	662.164	-318.504	325.770	528.755	-276.927	307.945	437.088	-267.524	288.563	326.298	-274.122	305.549	438.054	-351.682	293.414	318.616	-358.813	294.697	113.738	-313.988	337.363	37.339	-390.997	252.301	33.815	-201.129	350.793	55.773	-91.514	707.588	792.587	-169.492	700.351	661.414	-183.387	752.331	810.546	-265.128	734.895	678.573	-295.555	711.073	531.530	-294.714	716.961	426.660	-272.616	740.136	445.464	-365.031	747.916	329.657	-379.620	753.431	115.585	-331.340	706.804	35.949	-416.473	801.759	39.306	-230.970	712.689	57.600	-120.663
60	0.59000	408.798	1563.727	-301.746	678.382	1568.078	-290.804	508.226	1507.852	-193.204	564.561	1509.490	-190.868	202.904	1568.313	-320.925	115.607	1593.888	-370.699	110.473	1584.315	-219.211	99.465	1568.188	-104.527	860.730	1538.244	-315.226	981.632	1534.703	-330.286	997.353	1572.982	-190.713	999.314	1587.952	-80.317	407.417	1021.781	-159.230	663.118	1011.575	-174.074	479.562	1035.828	-373.996	522.560	1014.490	-390.308	571.093	1033.668	-379.243	314.249	795.494	-205.434	309.932	790.685	-314.374	322.654	662.288	-318.492	325.803	528.878	-276.912	308.064	437.343	-267.482	288.597	326.382	-274.100	305.603	438.178	-351.678	293.482	318.764	-358.802	294.762	113.869	-313.974	337.416	37.475	-391.000	252.324	33.948	-201.113	350.764	55.906	-91.501	707.505	792.695	-169.425	700.417	661.491	-183.297	752.527	810.802	-264.989	734.907	678.630	-295.458	710.869	531.549	-294.680	716.941	426.755	-272.524	740.113	445.585	-364.964	747.760	329.732	-379.584	753.326	115.613	-331.392	706.791	36.077	-416.474	801.741	39.325	-230.978	712.717	57.711	-120.643
61	0.60000	408.881	1563.953	-301.718	678.376	1568.139	-290.636	508.277	1507.964	-193.167	564.527	1509.557	-190.775	203.130	1568.654	-320.820	115.816	1594.547	-370.336	110.956	1584.441	-218.715	99.684	1568.207	-104.255	860.856	1538.901	-314.809	981.607	1535.547	-329.790	997.431	1573.166	-189.971	999.301	1587.781	-79.807	407.458	1021.947	-159.214	663.067	1011.713	-174.005	479.599	1036.056	-373.983	522.630	1014.622	-390.306	571.129	1033.869	-379.238	314.262	795.664	-205.431	309.981	790.797	-314.397	322.706	662.405	-318.486	325.814	528.981	-276.868	308.109	437.426	-267.457	288.651	326.491	-274.089	305.663	438.323	-351.667	293.553	318.895	-358.762	294.814	113.947	-313.975	337.484	37.657	-390.996	252.354	34.066	-201.109	350.863	55.933	-91.517	707.549	792.823	-169.322	700.355	661.618	-183.207	752.528	810.878	-264.942	734.763	678.677	-295.343	711.009	531.682	-294.536	716.903	426.784	-272.438	740.120	445.678	-364.898	747.621	329.857	-379.547	753.369	115.765	-331.355	706.781	36.196	-416.493	801.691	39.474	-230.968	712.713	57.891	-120.650
62	0.61000	409.012	1564.079	-301.698	678.535	1568.256	-290.466	508.310	1508.082	-193.100	564.648	1509.580	-190.724	203.263	1569.120	-320.560	115.874	1595.321	-369.950	111.124	1584.714	-218.413	99.893	1568.126	-103.931	860.744	1539.448	-314.426	981.616	1536.299	-329.141	997.146	1573.470	-189.297	998.907	1587.526	-79.007	407.479	1022.071	-159.207	663.027	1011.820	-173.958	479.724	1036.165	-373.997	522.784	1014.781	-390.339	571.180	1033.975	-379.239	314.273	795.753	-205.443	310.031	790.909	-314.412	322.759	662.493	-318.503	325.826	529.124	-276.848	308.117	437.392	-267.452	288.711	326.607	-274.070	305.717	438.438	-351.653	293.592	318.965	-358.760	294.846	113.988	-313.983	337.494	37.815	-391.005	252.376	34.162	-201.124	350.876	56.131	-91.505	707.549	792.883	-169.261	700.282	661.670	-183.114	752.535	811.075	-264.875	734.753	678.781	-295.255	711.025	531.852	-294.461	716.779	426.895	-272.323	740.082	445.801	-364.852	747.544	330.008	-379.521	753.352	115.765	-331.352	706.722	36.335	-416.499	801.662	39.553	-230.956	712.785	58.029	-120.640
63	0.62000	409.067	1564.186	-301.598	678.498	1568.341	-290.350	508.412	1508.187	-193.035	564.648	1509.647	-190.650	203.477	1569.588	-320.374	115.986	1595.934	-369.532	111.245	1584.824	-218.098	99.915	1567.972	-103.647	860.749	1539.932	-314.051	981.809	1537.314	-328.555	996.798	1573.652	-188.582	998.382	1587.109	-78.213	407.382	1022.149	-159.236	662.895	1011.976	-173.860	479.645	1036.304	-374.003	522.664	1014.874	-390.333	571.230	1034.170	-379.196	314.296	795.847	-205.486	310.101	790.997	-314.445	322.883	662.544	-318.543	325.848	529.200	-276.831	308.097	437.473	-267.397	288.745	326.698	-274.064	305.706	438.580	-351.613	293.625	319.007	-358.773	294.866	114.063	-313.986	337.540	37.955	-391.008	252.382	34.205	-201.116	350.791	56.283	-91.505	707.499	793.022	-169.187	700.303	661.794	-182.990	752.539	811.215	-264.827	734.941	679.029	-295.134	711.006	532.000	-294.421	716.714	427.010	-272.276	740.193	445.953	-364.722	747.502	330.100	-379.505	753.314	115.871	-331.371	706.695	36.491	-416.509	801.601	39.683	-230.935	712.724	58.152	-120.623
64	0.63000	409.126	1564.264	-301.523	678.443	1568.403	-290.241	509.110	1507.700	-193.372	564.559	1509.671	-190.565	203.595	1570.080	-320.128	116.298	1596.377	-369.240	111.381	1584.907	-217.638	99.872	1567.674	-103.324	860.668	1540.493	-313.695	981.862	1538.001	-328.241	996.654	1573.804	-187.913	997.976	1586.847	-77.429	407.379	1022.186	-159.244	662.879	1012.029	-173.863	479.683	1036.298	-374.004	522.824	1014.955	-390.347	571.237	1034.220	-379.216	314.299	795.842	-205.524	310.123	790.988	-314.501	322.906	662.534	-318.561	325.846	529.267	-276.820	308.143	437.482	-267.425	288.740	326.705	-274.071	305.803	438.621	-351.645	293.648	319.073	-358.783	294.871	114.071	-313.978	337.468	38.003	-390.999	252.403	34.228	-201.118	350.794	56.332	-91.485	707.476	793.086	-169.139	700.202	661.813	-182.898	752.533	811.296	-264.771	734.918	679.128	-295.068	711.011	532.077	-294.364	716.692	427.056	-272.227	740.044	445.971	-364.646	747.458	330.234	-379.490	753.237	116.025	-331.350	706.662	36.579	-416.519	801.566	39.750	-230.939	712.695	58.217	-120.622
65	0.64000	409.162	1564.363	-301.400	678.404	1568.445	-290.105	509.103	1507.692	-193.327	564.497	1509.555	-190.510	203.583	1570.422	-319.822	116.364	1596.917	-368.884	111.481	1584.760	-217.239	99.901	1567.254	-102.945	860.508	1540.907	-313.350	981.726	1538.729	-327.862	996.332	1573.834	-187.305	997.702	1586.509	-76.845	407.342	1022.164	-159.277	662.860	1012.099	-173.821	479.671	1036.346	-374.016	522.775	1014.963	-390.365	571.294	1034.279	-379.239	314.293	795.879	-205.593	310.236	790.953	-314.562	322.914	662.537	-318.596	325.849	529.188	-276.833	308.161	437.546	-267.420	288.722	326.671	-274.094	305.881	438.560	-351.618	293.637	319.024	-358.793	294.876	114.067	-313.998	337.468	37.984	-391.002	252.371	34.209	-201.121	350.695	56.346	-91.512	707.447	793.177	-169.067	700.179	661.885	-182.842	752.394	811.274	-264.686	734.918	679.236	-295.021	711.004	532.155	-294.334	716.678	427.138	-272.186	740.015	446.031	-364.625	747.449	330.237	-379.464	753.232	116.038	-331.356	706.647	36.606	-416.525	801.551	39.813	-230.933	712.633	58.216	-120.626
66	0.65000	409.242	1564.292	-301.284	678.605	1568.408	-289.923	509.049	1507.635	-193.267	564.498	1509.428	-190.417	203.460	1570.645	-319.528	116.566	1597.322	-368.525	111.497	1584.660	-216.896	99.801	1566.811	-102.659	860.398	1541.321	-312.997	981.641	1539.572	-327.378	995.984	1573.808	-186.797	996.998	1585.837	-76.174	407.195	1022.125	-159.330	662.862	1012.054	-173.787	479.647	1036.204	-374.026	522.805	1014.913	-390.379	571.325	1034.183	-379.230	314.256	795.793	-205.661	310.250	790.923	-314.626	322.924	662.475	-318.631	325.839	529.133	-276.861	308.102	437.382	-267.439	288.698	326.636	-274.101	305.955	438.441	-351.643	293.629	318.987	-358.800	294.838	113.970	-314.006	337.400	37.918	-391.002	252.347	34.136	-201.117	350.664	56.328	-91.504	707.386	793.161	-169.028	700.188	661.866	-182.802	752.397	811.293	-264.630	734.910	679.148	-294.974	711.019	532.099	-294.284	716.783	427.097	-272.123	739.906	445.933	-364.600	747.438	330.295	-379.425	753.258	115.985	-331.366	706.627	36.595	-416.519	801.558	39.783	-230.923	712.615	58.173	-120.633
67	0.66000	409.401	1564.315	-301.155	678.551	1568.332	-289.783	509.057	1507.524	-193.178	564.425	1509.351	-190.283	203.519	1570.787	-319.243	116.613	1597.641	-368.168	111.486	1584.514	-216.651	99.626	1566.401	-102.394	860.579	1541.684	-312.680	981.562	1540.091	-327.001	995.510	1573.733	-186.209	996.285	1585.251	-75.596	407.133	1022.025	-159.381	662.883	1011.989	-173.774	479.665	1036.098	-374.038	522.818	1014.831	-390.370	571.395	1034.068	-379.212	314.236	795.711	-205.745	310.327	790.808	-314.702	322.914	662.402	-318.665	325.819	529.016	-276.898	308.077	437.338	-267.480	288.650	326.519	-274.141	305.849	438.392	-351.642	293.666	318.931	-358.819	294.815	113.912	-314.007	337.335	37.810	-390.984	252.305	34.021	-201.107	350.599	56.197	-91.528	707.397	793.100	-169.019	700.205	661.814	-182.791	752.423	811.218	-264.589	734.917	679.067	-294.946	711.020	532.007	-294.271	716.813	427.039	-272.118	740.007	445.938	-364.525	747.454	330.253	-379.408	753.168	115.976	-331.386	706.623	36.495	-416.507	801.583	39.732	-230.933	712.521	58.077	-120.633
